<?xml version="1.0" encoding="UTF-8" standalone="no"?>
<!-- Created with Inkscape (http://www.inkscape.org/) -->

<svg
   xmlns:dc="http://purl.org/dc/elements/1.1/"
   xmlns:cc="http://creativecommons.org/ns#"
   xmlns:rdf="http://www.w3.org/1999/02/22-rdf-syntax-ns#"
   xmlns:svg="http://www.w3.org/2000/svg"
   xmlns="http://www.w3.org/2000/svg"
   xmlns:sodipodi="http://sodipodi.sourceforge.net/DTD/sodipodi-0.dtd"
   xmlns:inkscape="http://www.inkscape.org/namespaces/inkscape"
   width="36.582619mm"
   height="21.795174mm"
   viewBox="0 0 36.582619 21.795174"
   version="1.1"
   id="svg8"
   inkscape:version="0.92.4 (5da689c313, 2019-01-14)"
   sodipodi:docname="Inicial educ.svg">
  <defs
     id="defs2">
    <inkscape:perspective
       sodipodi:type="inkscape:persp3d"
       inkscape:vp_x="0 : 8.5636834 : 1"
       inkscape:vp_y="0 : 999.99999 : 0"
       inkscape:vp_z="34.684523 : 8.5636834 : 1"
       inkscape:persp3d-origin="17.342262 : 5.7091223 : 1"
       id="perspective1125" />
    <meshgradient
       inkscape:collect="always"
       id="meshgradient108"
       gradientUnits="userSpaceOnUse"
       x="17.431086"
       y="3.7463808">
      <meshrow
         id="meshrow110">
        <meshpatch
           id="meshpatch112">
          <stop
             path="c 4.69447,0  9.38894,0  14.0834,0"
             style="stop-color:#ffffff;stop-opacity:1"
             id="stop114" />
          <stop
             path="c 0,8.69093  0,17.3819  0,26.0728"
             style="stop-color:#0000ff;stop-opacity:1"
             id="stop116" />
          <stop
             path="c -4.69447,0  -9.38894,0  -14.0834,0"
             style="stop-color:#ffffff;stop-opacity:1"
             id="stop118" />
          <stop
             path="c 0,-8.69093  0,-17.3819  0,-26.0728"
             style="stop-color:#0000ff;stop-opacity:1"
             id="stop120" />
        </meshpatch>
      </meshrow>
    </meshgradient>
  </defs>
  <sodipodi:namedview
     id="base"
     pagecolor="#ffffff"
     bordercolor="#666666"
     borderopacity="1.0"
     inkscape:pageopacity="0.0"
     inkscape:pageshadow="2"
     inkscape:zoom="3.959798"
     inkscape:cx="135.30911"
     inkscape:cy="16.459495"
     inkscape:document-units="mm"
     inkscape:current-layer="g60"
     showgrid="false"
     inkscape:window-width="1366"
     inkscape:window-height="715"
     inkscape:window-x="-8"
     inkscape:window-y="-8"
     inkscape:window-maximized="1" />
  <metadata
     id="metadata5">
    <rdf:RDF>
      <cc:Work
         rdf:about="">
        <dc:format>image/svg+xml</dc:format>
        <dc:type
           rdf:resource="http://purl.org/dc/dcmitype/StillImage" />
        <dc:title></dc:title>
      </cc:Work>
    </rdf:RDF>
  </metadata>
  <g
     inkscape:label="Capa 1"
     inkscape:groupmode="layer"
     id="layer1"
     transform="translate(0.67488271,-1.5475779)">
    <g
       aria-label="DVG"
       transform="matrix(0.69166261,0,0,-0.5492389,-0.66912121,19.617573)"
       style="font-style:normal;font-weight:normal;font-size:16.595644px;line-height:2.25;font-family:sans-serif;letter-spacing:0px;word-spacing:0px;fill:#2b0000;fill-opacity:1;stroke:none;stroke-width:0.41489109"
       id="text12">
      <path
         id="path18"
         style="fill:#2b0000;stroke-width:0.41489109"
         d="m 16.113291,15.808121 c 0,-2.058779 -0.259531,-3.92511 -0.774071,-5.584409 C 14.836305,8.5833716 14.173687,7.3379038 13.358699,6.4854603 12.802122,5.9046988 12.188522,5.5059241 11.520495,5.2861465 10.868076,5.0693819 10.022198,5.0052314 8.9948097,5.089586 c 0,0 -2.6992725,0.2216261 -2.6992725,0.2216261 0,0 0,20.1483649 0,20.1483649 0,0 2.6695861,0.461489 2.6695861,0.461489 1.0926127,0.188879 1.9807087,0.189573 2.6501597,-0.004 0.685609,-0.18614 1.273669,-0.510054 1.759896,-0.973378 0.843304,-0.814177 1.512297,-1.984534 1.998541,-3.511658 0.491671,-1.54417 0.739571,-3.423118 0.739571,-5.623882 0,0 0,0 0,0 m -1.779807,-0.03559 c 0,1.739254 -0.170989,3.191097 -0.51096,4.348696 -0.33732,1.148575 -0.835677,2.018498 -1.489473,2.609628 -0.469257,0.422524 -0.962202,0.687571 -1.477921,0.797606 -0.509432,0.118176 -1.1111006,0.126515 -1.8008847,0.02735 0,0 -1.3599027,-0.195498 -1.3599027,-0.195498 0,0 0,-15.8228835 0,-15.8228835 0,0 1.3599027,-0.072068 1.3599027,-0.072068 0.7149949,-0.037891 1.3477497,0.028218 1.8941807,0.20051 0.558921,0.1743247 1.077421,0.5272853 1.553866,1.0615972 0.601777,0.6739852 1.057338,1.5822553 1.361889,2.7236603 0.312304,1.149541 0.469303,2.592084 0.469303,4.321399 0,0 0,0 0,0"
         inkscape:connector-curvature="0" />
      <path
         id="path20"
         style="fill:#2b0000;stroke-width:0.41489109"
         d="m 31.514501,29.819156 c 0,0 -6.160262,-26.0727753 -6.160262,-26.0727753 0,0 -2.744253,0.2253193 -2.744253,0.2253193 0,0 -5.1789,23.412869 -5.1789,23.412869 0,0 1.957241,0.338346 1.957241,0.338346 0,0 4.626308,-20.9012894 4.626308,-20.9012894 0,0 5.115585,22.5853614 5.115585,22.5853614 0,0 2.384281,0.412169 2.384281,0.412169"
         inkscape:connector-curvature="0" />
      <path
         id="path22"
         style="fill:#2b0000;stroke-width:0.41489109"
         d="M 52.882516,3.8521367 C 51.471978,3.1473947 49.964338,2.5661172 48.367754,2.1056662 46.822781,1.6697934 45.363224,1.517105 43.984287,1.6371715 42.253788,1.7878492 40.711974,2.232896 39.345775,2.9622205 38.012092,3.6741882 36.900943,4.656788 35.999908,5.907047 c -0.894962,1.2425564 -1.575723,2.7519985 -2.050115,4.531707 -0.47021,1.776145 -0.703765,3.837878 -0.703765,6.196917 0,4.318855 0.872708,7.82778 2.661967,10.594573 1.859254,2.875151 4.513846,4.651847 8.076292,5.284154 1.296314,0.230086 2.648139,0.258825 4.058313,0.07923 1.454964,-0.168065 3.058948,-0.625382 4.82238,-1.384779 0,0 0,-5.053905 0,-5.053905 0,0 -0.314835,-0.03599 -0.314835,-0.03599 -0.359536,0.301151 -0.877786,0.68783 -1.550788,1.157489 -0.66576,0.464602 -1.31329,0.834886 -1.94305,1.112433 -0.753724,0.325635 -1.599956,0.55722 -2.53464,0.696128 -0.90988,0.151802 -1.928516,0.142328 -3.049969,-0.02427 -2.448925,-0.363796 -4.316424,-1.669383 -5.654661,-3.887618 -1.297757,-2.152415 -1.935275,-4.90838 -1.935275,-8.305577 0,-3.583175 0.668484,-6.380873 2.030448,-8.4307151 1.396343,-2.0887942 3.355616,-3.2251989 5.935952,-3.3743164 0.974954,-0.056343 1.961146,0.015218 2.958733,0.2179197 1.02529,0.2055763 1.936957,0.4975729 2.72943,0.8770107 0,0 0,7.6416331 0,7.6416331 0,0 -6.28934,-0.102872 -6.28934,-0.102872 0,0 0,3.455468 0,3.455468 0,0 9.635531,0.444701 9.635531,0.444701 0,0 0,-13.7442403 0,-13.7442403"
         inkscape:connector-curvature="0" />
    </g>
    <g
       id="g44"
       style="font-style:normal;font-weight:normal;font-size:16.595644px;line-height:2.25;font-family:sans-serif;letter-spacing:0px;word-spacing:0px;fill:#0000ff;fill-opacity:1;stroke:none;stroke-width:0.41489109"
       transform="matrix(0.69166261,0,0,-0.5492389,-1.9001472,19.637106)"
       aria-label="DVG">
      <path
         inkscape:connector-curvature="0"
         d="m 16.113291,15.808121 c 0,-2.058779 -0.259531,-3.92511 -0.774071,-5.584409 C 14.836305,8.5833716 14.173687,7.3379038 13.358699,6.4854603 12.802122,5.9046988 12.188522,5.5059241 11.520495,5.2861465 10.868076,5.0693819 10.022198,5.0052314 8.9948097,5.089586 c 0,0 -2.6992725,0.2216261 -2.6992725,0.2216261 0,0 0,20.1483649 0,20.1483649 0,0 2.6695861,0.461489 2.6695861,0.461489 1.0926127,0.188879 1.9807087,0.189573 2.6501597,-0.004 0.685609,-0.18614 1.273669,-0.510054 1.759896,-0.973378 0.843304,-0.814177 1.512297,-1.984534 1.998541,-3.511658 0.491671,-1.54417 0.739571,-3.423118 0.739571,-5.623882 0,0 0,0 0,0 m -1.779807,-0.03559 c 0,1.739254 -0.170989,3.191097 -0.51096,4.348696 -0.33732,1.148575 -0.835677,2.018498 -1.489473,2.609628 -0.469257,0.422524 -0.962202,0.687571 -1.477921,0.797606 -0.509432,0.118176 -1.1111006,0.126515 -1.8008847,0.02735 0,0 -1.3599027,-0.195498 -1.3599027,-0.195498 0,0 0,-15.8228835 0,-15.8228835 0,0 1.3599027,-0.072068 1.3599027,-0.072068 0.7149949,-0.037891 1.3477497,0.028218 1.8941807,0.20051 0.558921,0.1743247 1.077421,0.5272853 1.553866,1.0615972 0.601777,0.6739852 1.057338,1.5822553 1.361889,2.7236603 0.312304,1.149541 0.469303,2.592084 0.469303,4.321399 0,0 0,0 0,0"
         style="fill:#0000ff;stroke-width:0.41489109"
         id="path38" />
      <path
         inkscape:connector-curvature="0"
         d="M 31.514501,29.819156 25.354239,3.7463807 22.609986,3.9717 l -5.1789,23.412869 1.779807,0.03556 4.803742,-20.5985074 5.115585,22.5853614 2.384281,0.412169"
         style="fill:url(#meshgradient108);fill-opacity:1;stroke-width:0.41489109"
         id="path40"
         sodipodi:nodetypes="cccccccc" />
      <path
         inkscape:connector-curvature="0"
         d="M 52.882516,3.8521367 C 51.471978,3.1473947 49.964338,2.5661172 48.367754,2.1056662 46.822781,1.6697934 45.363224,1.517105 43.984287,1.6371715 42.253788,1.7878492 40.711974,2.232896 39.345775,2.9622205 38.012092,3.6741882 36.900943,4.656788 35.999908,5.907047 c -0.894962,1.2425564 -1.575723,2.7519985 -2.050115,4.531707 -0.47021,1.776145 -0.703765,3.837878 -0.703765,6.196917 0,4.318855 0.872708,7.82778 2.661967,10.594573 1.859254,2.875151 4.513846,4.651847 8.076292,5.284154 1.296314,0.230086 2.648139,0.258825 4.058313,0.07923 1.454964,-0.168065 3.058948,-0.625382 4.82238,-1.384779 0,0 0,-5.053905 0,-5.053905 0,0 -0.314835,-0.03599 -0.314835,-0.03599 -0.359536,0.301151 -0.877786,0.68783 -1.550788,1.157489 -0.66576,0.464602 -1.31329,0.834886 -1.94305,1.112433 -0.753724,0.325635 -1.599956,0.55722 -2.53464,0.696128 -0.90988,0.151802 -1.928516,0.142328 -3.049969,-0.02427 -2.448925,-0.363796 -4.316424,-1.669383 -5.654661,-3.887618 -1.297757,-2.152415 -1.935275,-4.90838 -1.935275,-8.305577 0,-3.583175 0.668484,-6.380873 2.030448,-8.4307151 1.396343,-2.0887942 3.355616,-3.2251989 5.935952,-3.3743164 0.974954,-0.056343 1.961146,0.015218 2.958733,0.2179197 1.02529,0.2055763 1.936957,0.4975729 2.72943,0.8770107 0,0 0,7.6416331 0,7.6416331 0,0 -6.28934,-0.102872 -6.28934,-0.102872 0,0 0,3.455468 0,3.455468 0,0 9.635531,0.444701 9.635531,0.444701 0,0 0,-13.7442403 0,-13.7442403"
         style="fill:#0000ff;stroke-width:0.41489109"
         id="path42" />
    </g>
    <g
       id="g52"
       style="font-style:normal;font-weight:normal;font-size:16.595644px;line-height:2.25;font-family:sans-serif;letter-spacing:0px;word-spacing:0px;fill:#00ff00;fill-opacity:1;stroke:none;stroke-width:0.41489109"
       transform="matrix(0.69166261,0,0,-0.5492389,-3.7982444,19.513352)"
       aria-label="DVG">
      <path
         inkscape:connector-curvature="0"
         d="m 16.113291,15.808121 c 0,-2.058779 -0.259531,-3.92511 -0.774071,-5.584409 C 14.836305,8.5833716 14.173687,7.3379038 13.358699,6.4854603 12.802122,5.9046988 12.188522,5.5059241 11.520495,5.2861465 10.868076,5.0693819 10.022198,5.0052314 8.9948097,5.089586 c 0,0 -2.6992725,0.2216261 -2.6992725,0.2216261 0,0 0,20.1483649 0,20.1483649 0,0 2.6695861,0.461489 2.6695861,0.461489 1.0926127,0.188879 1.9807087,0.189573 2.6501597,-0.004 0.685609,-0.18614 1.273669,-0.510054 1.759896,-0.973378 0.843304,-0.814177 1.512297,-1.984534 1.998541,-3.511658 0.491671,-1.54417 0.739571,-3.423118 0.739571,-5.623882 0,0 0,0 0,0 m -1.779807,-0.03559 c 0,1.739254 -0.170989,3.191097 -0.51096,4.348696 -0.33732,1.148575 -0.835677,2.018498 -1.489473,2.609628 -0.469257,0.422524 -0.962202,0.687571 -1.477921,0.797606 -0.509432,0.118176 -1.1111006,0.126515 -1.8008847,0.02735 0,0 -1.3599027,-0.195498 -1.3599027,-0.195498 0,0 0,-15.8228835 0,-15.8228835 0,0 1.3599027,-0.072068 1.3599027,-0.072068 0.7149949,-0.037891 1.3477497,0.028218 1.8941807,0.20051 0.558921,0.1743247 1.077421,0.5272853 1.553866,1.0615972 0.601777,0.6739852 1.057338,1.5822553 1.361889,2.7236603 0.312304,1.149541 0.469303,2.592084 0.469303,4.321399 0,0 0,0 0,0"
         style="fill:#00ff00;stroke-width:0.41489109"
         id="path46" />
      <path
         inkscape:connector-curvature="0"
         d="m 31.514501,29.819156 c 0,0 -6.160262,-26.0727753 -6.160262,-26.0727753 0,0 -2.744253,0.2253193 -2.744253,0.2253193 0,0 -5.1789,23.412869 -5.1789,23.412869 0,0 1.957241,0.338346 1.957241,0.338346 0,0 4.626308,-20.9012894 4.626308,-20.9012894 0,0 5.115585,22.5853614 5.115585,22.5853614 0,0 2.384281,0.412169 2.384281,0.412169"
         style="fill:#00ff00;stroke-width:0.41489109"
         id="path48" />
      <path
         inkscape:connector-curvature="0"
         d="M 52.882516,3.8521367 C 51.471978,3.1473947 49.964338,2.5661172 48.367754,2.1056662 46.822781,1.6697934 45.363224,1.517105 43.984287,1.6371715 42.253788,1.7878492 40.711974,2.232896 39.345775,2.9622205 38.012092,3.6741882 36.900943,4.656788 35.999908,5.907047 c -0.894962,1.2425564 -1.575723,2.7519985 -2.050115,4.531707 -0.47021,1.776145 -0.703765,3.837878 -0.703765,6.196917 0,4.318855 0.872708,7.82778 2.661967,10.594573 1.859254,2.875151 4.513846,4.651847 8.076292,5.284154 1.296314,0.230086 2.648139,0.258825 4.058313,0.07923 1.454964,-0.168065 3.058948,-0.625382 4.82238,-1.384779 0,0 0,-5.053905 0,-5.053905 0,0 -0.314835,-0.03599 -0.314835,-0.03599 -0.359536,0.301151 -0.877786,0.68783 -1.550788,1.157489 -0.66576,0.464602 -1.31329,0.834886 -1.94305,1.112433 -0.753724,0.325635 -1.599956,0.55722 -2.53464,0.696128 -0.90988,0.151802 -1.928516,0.142328 -3.049969,-0.02427 -2.448925,-0.363796 -4.316424,-1.669383 -5.654661,-3.887618 -1.297757,-2.152415 -1.935275,-4.90838 -1.935275,-8.305577 0,-3.583175 0.668484,-6.380873 2.030448,-8.4307151 1.396343,-2.0887942 3.355616,-3.2251989 5.935952,-3.3743164 0.974954,-0.056343 1.961146,0.015218 2.958733,0.2179197 1.02529,0.2055763 1.936957,0.4975729 2.72943,0.8770107 0,0 0,7.6416331 0,7.6416331 0,0 -6.28934,-0.102872 -6.28934,-0.102872 0,0 0,3.455468 0,3.455468 0,0 9.635531,0.444701 9.635531,0.444701 0,0 0,-13.7442403 0,-13.7442403"
         style="fill:#00ff00;stroke-width:0.41489109"
         id="path50" />
    </g>
    <g
       aria-label="DVG"
       transform="matrix(0.69166261,0,0,-0.5492389,-5.0292704,19.532901)"
       style="font-style:normal;font-weight:normal;font-size:16.595644px;line-height:2.25;font-family:sans-serif;letter-spacing:0px;word-spacing:0px;fill:#ff0000;fill-opacity:1;stroke:none;stroke-width:0.41489109"
       id="g60">
      <path
         id="path54"
         style="fill:#ff0000;stroke-width:0.41489109"
         d="m 16.113291,15.808121 c 0,-2.058779 -0.259531,-3.92511 -0.774071,-5.584409 C 14.836305,8.5833716 14.173687,7.3379038 13.358699,6.4854603 12.802122,5.9046988 12.188522,5.5059241 11.520495,5.2861465 10.868076,5.0693819 10.022198,5.0052314 8.9948097,5.089586 c 0,0 -2.6992725,0.2216261 -2.6992725,0.2216261 0,0 0,20.1483649 0,20.1483649 0,0 2.6695861,0.461489 2.6695861,0.461489 1.0926127,0.188879 1.9807087,0.189573 2.6501597,-0.004 0.685609,-0.18614 1.273669,-0.510054 1.759896,-0.973378 0.843304,-0.814177 1.512297,-1.984534 1.998541,-3.511658 0.491671,-1.54417 0.739571,-3.423118 0.739571,-5.623882 0,0 0,0 0,0 m -1.779807,-0.03559 c 0,1.739254 -0.170989,3.191097 -0.51096,4.348696 -0.33732,1.148575 -0.835677,2.018498 -1.489473,2.609628 -0.469257,0.422524 -0.962202,0.687571 -1.477921,0.797606 -0.509432,0.118176 -1.1111006,0.126515 -1.8008847,0.02735 0,0 -1.3599027,-0.195498 -1.3599027,-0.195498 0,0 0,-15.8228835 0,-15.8228835 0,0 1.3599027,-0.072068 1.3599027,-0.072068 0.7149949,-0.037891 1.3477497,0.028218 1.8941807,0.20051 0.558921,0.1743247 1.077421,0.5272853 1.553866,1.0615972 0.601777,0.6739852 1.057338,1.5822553 1.361889,2.7236603 0.312304,1.149541 0.469303,2.592084 0.469303,4.321399 0,0 0,0 0,0"
         inkscape:connector-curvature="0" />
      <path
         id="path56"
         style="fill:#ff0000;stroke-width:0.41489109"
         d="m 31.514501,29.819156 c 0,0 -6.160262,-26.0727753 -6.160262,-26.0727753 0,0 -2.744253,0.2253193 -2.744253,0.2253193 0,0 -5.1789,23.412869 -5.1789,23.412869 0,0 1.957241,0.338346 1.957241,0.338346 0,0 4.626308,-20.9012894 4.626308,-20.9012894 0,0 5.115585,22.5853614 5.115585,22.5853614 0,0 2.384281,0.412169 2.384281,0.412169"
         inkscape:connector-curvature="0" />
      <path
         id="path58"
         style="fill:#ff0000;stroke-width:0.41489109"
         d="M 52.882516,3.8521367 C 51.471978,3.1473947 49.964338,2.5661172 48.367754,2.1056662 46.822781,1.6697934 45.363224,1.517105 43.984287,1.6371715 42.253788,1.7878492 40.711974,2.232896 39.345775,2.9622205 38.012092,3.6741882 36.900943,4.656788 35.999908,5.907047 c -0.894962,1.2425564 -1.575723,2.7519985 -2.050115,4.531707 -0.47021,1.776145 -0.703765,3.837878 -0.703765,6.196917 0,4.318855 0.872708,7.82778 2.661967,10.594573 1.859254,2.875151 4.513846,4.651847 8.076292,5.284154 1.296314,0.230086 2.648139,0.258825 4.058313,0.07923 1.454964,-0.168065 3.058948,-0.625382 4.82238,-1.384779 0,0 0,-5.053905 0,-5.053905 0,0 -0.314835,-0.03599 -0.314835,-0.03599 -0.359536,0.301151 -0.877786,0.68783 -1.550788,1.157489 -0.66576,0.464602 -1.31329,0.834886 -1.94305,1.112433 -0.753724,0.325635 -1.599956,0.55722 -2.53464,0.696128 -0.90988,0.151802 -1.928516,0.142328 -3.049969,-0.02427 -2.448925,-0.363796 -4.316424,-1.669383 -5.654661,-3.887618 -1.297757,-2.152415 -1.935275,-4.90838 -1.935275,-8.305577 0,-3.583175 0.668484,-6.380873 2.030448,-8.4307151 1.396343,-2.0887942 3.355616,-3.2251989 5.935952,-3.3743164 0.974954,-0.056343 1.961146,0.015218 2.958733,0.2179197 1.02529,0.2055763 1.936957,0.4975729 2.72943,0.8770107 0,0 0,7.6416331 0,7.6416331 0,0 -6.28934,-0.102872 -6.28934,-0.102872 0,0 0,3.455468 0,3.455468 0,0 9.635531,0.444701 9.635531,0.444701 0,0 0,-13.7442403 0,-13.7442403"
         inkscape:connector-curvature="0" />
      <path
         sodipodi:type="star"
         style="opacity:0.70899999;fill:#f9f9f9;fill-opacity:1;paint-order:fill markers stroke"
         id="path1107"
         sodipodi:sides="5"
         sodipodi:cx="108.77249"
         sodipodi:cy="152.34218"
         sodipodi:r1="1.5911475e-07"
         sodipodi:r2="20.936964"
         sodipodi:arg1="-1.4081903"
         sodipodi:arg2="-0.70371417"
         inkscape:flatsided="false"
         inkscape:rounded="0"
         inkscape:randomized="0"
         d="m 108.77249,152.34218 15.96327,-13.54735 -15.96327,13.54735 17.81721,10.99561 -17.81721,-10.99561 -4.95162,20.343 4.95162,-20.343 -20.877483,1.57706 20.877483,-1.57706 -7.95137,-19.36833 z"
         transform="matrix(0.144973,0,0,-0.20509922,7.3355606,28.480998)"
         inkscape:transform-center-x="0.10815552"
         inkscape:transform-center-y="0.040402819" />
    </g>
  </g>
</svg>
